<svg width="45" height="44" viewBox="0 0 45 44" fill="none" xmlns="http://www.w3.org/2000/svg">
<path d="M33 11.5867C31.6254 10.2326 29.9893 9.15929 28.1869 8.42909C26.3843 7.69889 24.4511 7.32643 22.5 7.33335C19.8917 7.33584 17.3296 8.00838 15.0707 9.28361C12.8118 10.5588 10.9352 12.392 9.62876 14.5995C8.32238 16.807 7.63211 19.3114 7.62705 21.8618C7.62201 24.4123 8.30237 26.9192 9.6 29.1317L7.5 36.6667L15.375 34.65C17.5495 35.8329 19.9929 36.4634 22.4812 36.4834C26.4369 36.4835 30.2325 34.9558 33.0416 32.233C35.8509 29.5103 37.4466 25.8126 37.4812 21.945C37.4681 20.0151 37.0654 18.1067 36.2964 16.3292C35.5275 14.5517 34.4072 12.94 33 11.5867ZM22.5 33.9717C20.2832 33.9732 18.1069 33.3905 16.2 32.285L15.75 32.01L11.0812 33.22L12.3188 28.765L12.0187 28.3067C10.4236 25.789 9.82826 22.7865 10.3455 19.8682C10.8628 16.95 12.4568 14.3186 14.8254 12.4726C17.1941 10.6265 20.1729 9.69406 23.1977 9.85178C26.2224 10.0095 29.0831 11.2464 31.2375 13.3283C33.5925 15.58 34.9406 18.6514 34.9875 21.8717C34.9579 25.0908 33.6291 28.1683 31.2904 30.4345C28.9519 32.7005 25.7925 33.9719 22.5 33.9717ZM29.2687 24.915C28.8937 24.7317 27.075 23.8517 26.7375 23.7417C26.4 23.6317 26.1375 23.5584 25.8938 23.925C25.527 24.4165 25.1325 24.8877 24.7125 25.3367C24.5063 25.5934 24.2812 25.6117 23.9062 25.3367C21.7682 24.5106 19.9869 22.9889 18.8625 21.0284C18.4688 20.3867 19.2375 20.4234 19.95 19.0484C20.0027 18.9492 20.0301 18.8392 20.0301 18.7275C20.0301 18.6159 20.0027 18.5059 19.95 18.4067C19.95 18.2233 19.1062 16.4267 18.8062 15.7117C18.5062 14.9967 18.2063 15.1067 17.9625 15.0883H17.2312C17.0418 15.0912 16.8551 15.1336 16.6837 15.2126C16.5124 15.2916 16.3602 15.4055 16.2375 15.5467C15.8168 15.9467 15.4886 16.4302 15.2752 16.9647C15.0617 17.4991 14.9679 18.0721 15 18.645C15.1176 20.0165 15.6458 21.3237 16.5188 22.4034C18.1166 24.7423 20.3064 26.6371 22.875 27.9034C24.2222 28.6723 25.7878 28.9938 27.3375 28.82C27.8535 28.7199 28.3423 28.5148 28.7719 28.2178C29.2016 27.921 29.5626 27.5389 29.8312 27.0967C30.0802 26.557 30.1586 25.9569 30.0563 25.3734C29.8875 25.19 29.6437 25.0984 29.2687 24.915Z" fill="black"/>
</svg>
